Coordinates
version=1
nRows=16
nColumns=33
inDegrees=yes

Units are S.I. units (second, meters, Newtons, ...)
Angles are in degrees.

endheader
time	ground_thorax_rot_x	ground_thorax_rot_y	ground_thorax_rot_z	ground_thorax_tx	ground_thorax_ty	ground_thorax_tz	clav_prot_r	clav_elev_r	scapula_abduction_r	scapula_elevation_r	scapula_upward_rot_r	scapula_winging_r	shoulder_elv_r	plane_of_elev_r	axial_rot_r	elbow_flexion_r	pro_sup_r	wrist_flex_r	wrist_dev_r	clav_prot_l	clav_elev_l	scapula_abduction_l	scapula_elevation_l	scapula_upward_rot_l	scapula_winging_l	shoulder_elv_l	plane_of_elev_l	axial_rot_l	elbow_flexion_l	pro_sup_l	wrist_flex_l	wrist_dev_l
      4.10000000	    -40.40927302	     -8.77551149	      9.98662498	   -105.29801540	    852.05175419	    -44.06466519	     22.76583690	    -45.00000000	     34.85055588	    -45.00000000	    -43.65115449	  -2618.97723558	  -2443.64834499	     21.71886059	   -154.76882472	   1439.62653859	   -199.63507898	     14.08728430	     14.71933463	      2.45844068	     29.80541476	    -29.64538418	    -45.00000000	    -45.00000000	  -2800.58757635	  -1703.49896220	     18.21816480	   -179.99999979	   1800.80586295	    189.47193625	     11.61638516	    -18.06059021
      4.11000000	    -40.42493034	     -7.91032977	      8.89034416	   -106.78801296	    854.18151056	    -44.43306437	     22.47501785	    -45.00000000	     35.16838252	    -45.00000000	    -41.84330882	  -2618.94286415	  -2443.74669932	     21.53026050	   -155.41561445	   1439.83793754	   -199.87996764	     14.06808113	     14.76684473	      2.36844299	     29.81762406	    -29.83093739	    -45.00000000	    -45.00000000	  -2800.78313795	  -1703.38185045	     18.28481410	   -179.99999979	   1800.51653875	    189.32609455	     11.27928712	    -18.26886713
      4.12000000	    -40.51988335	     -7.43386269	      8.30510457	   -108.17994316	    856.19432584	    -44.78315281	     22.20902596	    -45.00000000	     35.02328060	    -45.00000000	    -41.25929542	  -2618.90729729	  -2443.77664514	     21.61599883	   -155.49849937	   1439.84523415	   -200.05965113	     14.20605654	     14.65815854	      2.36216502	     29.85538916	    -29.99948389	    -45.00000000	    -45.00000000	  -2800.60992327	  -1703.27545223	     18.50249487	   -179.99999979	   1800.49877303	    189.11170777	     11.14857584	    -18.33003184
      4.13000000	    -40.43868830	     -8.23725819	      9.09203685	   -109.47458343	    858.09141805	    -45.10929048	     22.59028449	    -45.00000000	     35.03464304	    -45.00000000	    -42.96782320	  -2619.27267908	  -2443.61654016	     21.83454102	   -155.50976726	   1439.52685050	   -200.29623146	     14.22262885	     14.73924313	      2.33847163	     29.90343865	    -29.73629282	    -45.00000000	    -45.00000000	  -2800.36708951	  -1703.27547023	     18.31442671	   -179.99999979	   1800.68680408	    188.79058224	     11.31906008	    -18.23859928
      4.14000000	    -40.50125092	     -7.42397689	      8.09517003	   -110.66540557	    859.86380854	    -45.40374922	     22.24084638	    -45.00000000	     35.06478055	    -45.00000000	    -41.63841806	  -2619.08295053	  -2443.74006870	     21.78641608	   -156.26690939	   1439.73409892	   -200.53173732	     14.26846528	     14.71927626	      2.17513389	     29.94680119	    -29.89131064	    -45.00000000	    -45.00000000	  -2800.43997587	  -1703.13914186	     18.52071994	   -179.99999979	   1800.46747499	    188.70916674	     10.96624002	    -18.42072662
      4.15000000	    -40.50299033	     -7.05040608	      7.72385890	   -111.75358031	    861.50872760	    -45.66049730	     22.08566754	    -45.00000000	     34.95175831	    -45.00000000	    -41.24368671	  -2619.17208134	  -2443.69517365	     21.84503999	   -156.27198274	   1439.66622119	   -200.62425883	     14.37757175	     14.64538261	      2.34042628	     29.92869679	    -29.96267317	    -45.00000000	    -45.00000000	  -2800.43332337	  -1703.00455582	     18.61529331	   -179.99999979	   1800.28500308	    188.61246051	     10.78785736	    -18.47939702
      4.16000000	    -40.50163482	     -6.93164402	      7.50835235	   -112.73871234	    863.01985145	    -45.87429711	     22.02462113	    -45.00000000	     34.91302845	    -45.00000000	    -41.14109298	  -2619.22037136	  -2443.70838508	     21.93595682	   -156.51878112	   1439.61108387	   -200.73442949	     14.43798652	     14.65333547	      2.28076979	     29.95481722	    -29.90625008	    -45.00000000	    -45.00000000	  -2800.38778782	  -1702.88625877	     18.69077060	   -179.99999979	   1800.20369876	    188.59642766	     10.62875026	    -18.56302738
      4.17000000	    -40.48048921	     -6.86383501	      7.37509410	   -113.62278552	    864.39193862	    -46.04157797	     21.98430257	    -45.00000000	     34.96249575	    -45.00000000	    -41.08078709	  -2619.29009619	  -2443.66929914	     21.94919942	   -156.70416368	   1439.54369046	   -200.80922698	     14.50146657	     14.65865010	      2.29461201	     29.94689562	    -29.92229527	    -45.00000000	    -45.00000000	  -2800.38660042	  -1702.84311947	     18.66408441	   -179.99999979	   1800.07302582	    188.71152045	     10.46269265	    -18.64578791
      4.18000000	    -40.59267967	     -6.55118274	      6.81873664	   -114.40670715	    865.61623570	    -46.15945355	     21.92313716	    -45.00000000	     34.91811622	    -45.00000000	    -40.97694863	  -2619.24027614	  -2443.86144625	     22.16575948	   -156.80366822	   1439.46615392	   -200.84393431	     14.61156958	     14.68858566	      2.21103996	     29.99295836	    -29.75667440	    -45.00000000	    -45.00000000	  -2800.33945163	  -1702.56509452	     18.94336388	   -179.99999979	   1799.99038857	    188.94256517	     10.20416685	    -18.77177171
      4.19000000	    -40.50438930	     -6.57591166	      6.81056676	   -115.09383881	    866.68634122	    -46.22611961	     21.75001779	    -45.00000000	     35.09834457	    -45.00000000	    -40.73585817	  -2619.33213173	  -2443.79908435	     21.98531036	   -156.98549623	   1439.30856111	   -200.82582918	     14.67152685	     14.76428126	      2.31109665	     29.90914537	    -29.92581265	    -45.00000000	    -45.00000000	  -2800.43675620	  -1702.70242737	     18.62975549	   -179.99999979	   1799.69893333	    189.31900780	      9.97348560	    -18.89399489
      4.20000000	    -40.46084667	     -6.63734645	      6.87899786	   -115.68734727	    867.59365831	    -46.24081253	     21.81505246	    -45.00000000	     34.97480079	    -45.00000000	    -40.84185343	  -2619.36208858	  -2443.75203494	     21.99255787	   -157.12846850	   1439.30412464	   -200.77982307	     14.80739807	     14.66665149	      2.17922502	     29.94208565	    -29.84410912	    -45.00000000	    -45.00000000	  -2800.43218043	  -1702.61532932	     18.72333717	   -179.99999979	   1799.65004388	    190.01377810	      9.72029606	    -19.01755259
      4.21000000	    -40.50846970	     -6.46618851	      6.52293375	   -116.19290414	    868.33117819	    -46.20443128	     21.80987610	    -45.00000000	     34.88220516	    -45.00000000	    -40.85785223	  -2619.36418668	  -2443.86817115	     22.23968188	   -157.16527489	   1439.27304517	   -200.67842911	     14.95757196	     14.69476553	      2.16892223	     29.95316023	    -29.60883044	    -45.00000000	    -45.00000000	  -2800.44187376	  -1702.24820606	     18.97201200	   -179.99999979	   1799.46479791	    190.78064802	      9.30165707	    -19.20418089
      4.22000000	    -40.40265453	     -6.59934082	      6.73606696	   -116.62074474	    868.89599822	    -46.11988172	     21.75184104	    -45.00000000	     34.88729396	    -45.00000000	    -40.76976907	  -2619.41826207	  -2443.79597779	     22.02057495	   -157.33393903	   1439.21521305	   -200.50828331	     15.03439349	     14.67142024	      2.15641887	     29.90166537	    -29.72860683	    -45.00000000	    -45.00000000	  -2800.56167921	  -1702.40269469	     18.80346231	   -179.99999979	   1799.30056925	    191.87684002	      9.03469072	    -19.32038639
      4.23000000	    -40.37123698	     -6.68304055	      6.71441567	   -116.97821314	    869.27975236	    -45.99361797	     21.76413381	    -45.00000000	     34.83414484	    -45.00000000	    -40.86127817	  -2619.43286640	  -2443.78800369	     22.08526990	   -157.38894243	   1439.19665510	   -200.28733054	     15.21519658	     14.62531013	      2.05040726	     29.90691892	    -29.62629730	    -45.00000000	    -45.00000000	  -2800.59578413	  -1702.29807414	     18.86189348	   -179.99999979	   1799.11017276	    193.23794706	      8.58580814	    -19.51654196
      4.24000000	    -40.41496171	     -6.65121501	      6.52329352	   -117.27660269	    869.48249032	    -45.83508203	     21.73206528	    -45.00000000	     34.87029728	    -45.00000000	    -41.11660260	  -2619.41884374	  -2443.90186546	     22.16255556	   -157.30381458	   1439.12048823	   -200.03590774	     15.37774787	     14.71078501	      2.06420333	     29.90077265	    -29.39497338	    -45.00000000	    -45.00000000	  -2800.64653098	  -1702.07956928	     18.97984131	   -179.99999979	   1798.73735482	    194.49867295	      8.03022108	    -19.74562712
      4.25000000	    -40.36644486	     -6.89557312	      6.77890545	   -117.52711996	    869.50663173	    -45.65551317	     21.74713175	    -45.00000000	     34.83023277	    -45.00000000	    -41.08684307	  -2619.45099882	  -2443.89199131	     22.07669587	   -157.44062502	   1439.06054982	   -199.74301481	     15.46721466	     14.65193964	      1.97312108	     29.86311591	    -29.52824297	    -45.00000000	    -45.00000000	  -2800.64999528	  -1702.17712257	     18.86697830	   -179.99999979	   1798.65603059	    196.25425533	      7.76727189	    -19.83461579
